solid OpenSCAD_Model
  facet normal 0 0 -1
    outer loop
      vertex 7.37634 -27.5289 0
      vertex 0 -26.4 0
      vertex 6.08224 -22.6992 0
    endloop
  endfacet
  facet normal 0 0 -1
    outer loop
      vertex 16.617 -16.617 0
      vertex 18.5329 -10.7 0
      vertex 22.8631 -13.2 0
    endloop
  endfacet
  facet normal 0 0 -1
    outer loop
      vertex 22.6992 -6.08224 0
      vertex 21.4 0 0
      vertex 26.4 0 0
    endloop
  endfacet
  facet normal 0 -0 -1
    outer loop
      vertex 0 26.4 0
      vertex 0 21.4 0
      vertex -6.08224 22.6992 0
    endloop
  endfacet
  facet normal 0 0 -1
    outer loop
      vertex 22.6992 6.08224 0
      vertex 18.5329 10.7 0
      vertex 22.8631 13.2 0
    endloop
  endfacet
  facet normal 0 0 -1
    outer loop
      vertex 10.7 18.5329 0
      vertex 13.2 22.8631 0
      vertex 16.617 16.617 0
    endloop
  endfacet
  facet normal 0 0 -1
    outer loop
      vertex 6.08224 22.6992 0
      vertex 13.2 22.8631 0
      vertex 10.7 18.5329 0
    endloop
  endfacet
  facet normal 0 0 -1
    outer loop
      vertex -22.8631 -13.2 0
      vertex -18.5329 -10.7 0
      vertex -16.617 -16.617 0
    endloop
  endfacet
  facet normal 0 0 -1
    outer loop
      vertex 0 21.4 0
      vertex 0 26.4 0
      vertex 6.08224 22.6992 0
    endloop
  endfacet
  facet normal -0 0 -1
    outer loop
      vertex -6.08224 22.6992 0
      vertex -10.7 18.5329 0
      vertex -13.2 22.8631 0
    endloop
  endfacet
  facet normal 0 0 -1
    outer loop
      vertex -26.4 0 0
      vertex -21.4 0 0
      vertex -22.6992 -6.08224 0
    endloop
  endfacet
  facet normal 0 0 -1
    outer loop
      vertex -18.5329 10.7 0
      vertex -22.8631 13.2 0
      vertex -16.617 16.617 0
    endloop
  endfacet
  facet normal 0 0 -1
    outer loop
      vertex -22.6992 6.08224 0
      vertex -22.8631 13.2 0
      vertex -18.5329 10.7 0
    endloop
  endfacet
  facet normal 0 -0 -1
    outer loop
      vertex -22.6992 6.08224 0
      vertex -21.4 0 0
      vertex -26.4 0 0
    endloop
  endfacet
  facet normal 0 0 -1
    outer loop
      vertex -16.617 16.617 0
      vertex -13.2 22.8631 0
      vertex -10.7 18.5329 0
    endloop
  endfacet
  facet normal 0 0 -1
    outer loop
      vertex -7.37634 -27.5289 0
      vertex -13.2 -22.8631 0
      vertex -6.08224 -22.6992 0
    endloop
  endfacet
  facet normal 0 -0 -1
    outer loop
      vertex -22.6992 -6.08224 0
      vertex -18.5329 -10.7 0
      vertex -22.8631 -13.2 0
    endloop
  endfacet
  facet normal -0 0 -1
    outer loop
      vertex -10.7 -18.5329 0
      vertex -13.2 -22.8631 0
      vertex -16.617 -16.617 0
    endloop
  endfacet
  facet normal -0 0 -1
    outer loop
      vertex 6.08224 -22.6992 0
      vertex 0 -26.4 0
      vertex 0 -21.4 0
    endloop
  endfacet
  facet normal 0 0 -1
    outer loop
      vertex -6.08224 -22.6992 0
      vertex 0 -21.4 0
      vertex 0 -26.4 0
    endloop
  endfacet
  facet normal 0 0 -1
    outer loop
      vertex 22.8631 -13.2 0
      vertex 18.5329 -10.7 0
      vertex 22.6992 -6.08224 0
    endloop
  endfacet
  facet normal 0 0 -1
    outer loop
      vertex 6.08224 -22.6992 0
      vertex 13.2 -22.8631 0
      vertex 7.37634 -27.5289 0
    endloop
  endfacet
  facet normal 0 0 -1
    outer loop
      vertex 21.4 0 0
      vertex 22.6992 6.08224 0
      vertex 26.4 0 0
    endloop
  endfacet
  facet normal 0 0 -1
    outer loop
      vertex 16.617 16.617 0
      vertex 22.8631 13.2 0
      vertex 18.5329 10.7 0
    endloop
  endfacet
  facet normal -0 0 -1
    outer loop
      vertex -6.08224 -22.6992 0
      vertex -13.2 -22.8631 0
      vertex -10.7 -18.5329 0
    endloop
  endfacet
  facet normal 0 0 -1
    outer loop
      vertex -7.37634 -27.5289 0
      vertex -6.08224 -22.6992 0
      vertex 0 -26.4 0
    endloop
  endfacet
  facet normal 0 0 -1
    outer loop
      vertex -20.1525 -20.1525 0
      vertex -22.8631 -13.2 0
      vertex -16.617 -16.617 0
    endloop
  endfacet
  facet normal 0 0 -1
    outer loop
      vertex -20.1525 -20.1525 0
      vertex -16.617 -16.617 0
      vertex -13.2 -22.8631 0
    endloop
  endfacet
  facet normal 0 0 -1
    outer loop
      vertex -27.5289 -7.37634 0
      vertex -26.4 0 0
      vertex -22.6992 -6.08224 0
    endloop
  endfacet
  facet normal 0 0 -1
    outer loop
      vertex -27.5289 -7.37634 0
      vertex -22.6992 -6.08224 0
      vertex -22.8631 -13.2 0
    endloop
  endfacet
  facet normal 0 0 -1
    outer loop
      vertex -27.5289 7.37634 0
      vertex -22.8631 13.2 0
      vertex -22.6992 6.08224 0
    endloop
  endfacet
  facet normal 0 0 -1
    outer loop
      vertex -27.5289 7.37634 0
      vertex -22.6992 6.08224 0
      vertex -26.4 0 0
    endloop
  endfacet
  facet normal 0 0 -1
    outer loop
      vertex -20.1525 20.1525 0
      vertex -13.2 22.8631 0
      vertex -16.617 16.617 0
    endloop
  endfacet
  facet normal 0 -0 -1
    outer loop
      vertex -20.1525 20.1525 0
      vertex -16.617 16.617 0
      vertex -22.8631 13.2 0
    endloop
  endfacet
  facet normal 0 0 -1
    outer loop
      vertex -7.37634 27.5289 0
      vertex 0 26.4 0
      vertex -6.08224 22.6992 0
    endloop
  endfacet
  facet normal 0 -0 -1
    outer loop
      vertex -7.37634 27.5289 0
      vertex -6.08224 22.6992 0
      vertex -13.2 22.8631 0
    endloop
  endfacet
  facet normal 0 -0 -1
    outer loop
      vertex 7.37634 27.5289 0
      vertex 13.2 22.8631 0
      vertex 6.08224 22.6992 0
    endloop
  endfacet
  facet normal 0 0 -1
    outer loop
      vertex 7.37634 27.5289 0
      vertex 6.08224 22.6992 0
      vertex 0 26.4 0
    endloop
  endfacet
  facet normal 0 -0 -1
    outer loop
      vertex 20.1525 20.1525 0
      vertex 22.8631 13.2 0
      vertex 16.617 16.617 0
    endloop
  endfacet
  facet normal -0 0 -1
    outer loop
      vertex 20.1525 20.1525 0
      vertex 16.617 16.617 0
      vertex 13.2 22.8631 0
    endloop
  endfacet
  facet normal 0 0 -1
    outer loop
      vertex 27.5289 7.37634 0
      vertex 26.4 0 0
      vertex 22.6992 6.08224 0
    endloop
  endfacet
  facet normal -0 0 -1
    outer loop
      vertex 27.5289 7.37634 0
      vertex 22.6992 6.08224 0
      vertex 22.8631 13.2 0
    endloop
  endfacet
  facet normal -0 0 -1
    outer loop
      vertex 27.5289 -7.37634 0
      vertex 22.8631 -13.2 0
      vertex 22.6992 -6.08224 0
    endloop
  endfacet
  facet normal 0 0 -1
    outer loop
      vertex 27.5289 -7.37634 0
      vertex 22.6992 -6.08224 0
      vertex 26.4 0 0
    endloop
  endfacet
  facet normal 0 0 -1
    outer loop
      vertex 10.7 -18.5329 0
      vertex 16.617 -16.617 0
      vertex 13.2 -22.8631 0
    endloop
  endfacet
  facet normal 0 0 -1
    outer loop
      vertex 22.8631 -13.2 0
      vertex 20.1525 -20.1525 0
      vertex 16.617 -16.617 0
    endloop
  endfacet
  facet normal 0 -0 -1
    outer loop
      vertex 16.617 -16.617 0
      vertex 20.1525 -20.1525 0
      vertex 13.2 -22.8631 0
    endloop
  endfacet
  facet normal 0 -0 -1
    outer loop
      vertex 10.7 -18.5329 0
      vertex 13.2 -22.8631 0
      vertex 6.08224 -22.6992 0
    endloop
  endfacet
  facet normal 0 0 1
    outer loop
      vertex 6.08224 -22.6992 12
      vertex 0 -26.4 12
      vertex 7.37634 -27.5289 12
    endloop
  endfacet
  facet normal 0 0 1
    outer loop
      vertex 22.8631 -13.2 12
      vertex 18.5329 -10.7 12
      vertex 16.617 -16.617 12
    endloop
  endfacet
  facet normal 0 0 1
    outer loop
      vertex 26.4 0 12
      vertex 21.4 0 12
      vertex 22.6992 -6.08224 12
    endloop
  endfacet
  facet normal -0 0 1
    outer loop
      vertex -6.08224 22.6992 12
      vertex 0 21.4 12
      vertex 0 26.4 12
    endloop
  endfacet
  facet normal 0 0 1
    outer loop
      vertex 22.8631 13.2 12
      vertex 18.5329 10.7 12
      vertex 22.6992 6.08224 12
    endloop
  endfacet
  facet normal 0 0 1
    outer loop
      vertex 16.617 16.617 12
      vertex 13.2 22.8631 12
      vertex 10.7 18.5329 12
    endloop
  endfacet
  facet normal 0 -0 1
    outer loop
      vertex 10.7 18.5329 12
      vertex 13.2 22.8631 12
      vertex 6.08224 22.6992 12
    endloop
  endfacet
  facet normal 0 0 1
    outer loop
      vertex -16.617 -16.617 12
      vertex -18.5329 -10.7 12
      vertex -22.8631 -13.2 12
    endloop
  endfacet
  facet normal 0 0 1
    outer loop
      vertex 6.08224 22.6992 12
      vertex 0 26.4 12
      vertex 0 21.4 12
    endloop
  endfacet
  facet normal 0 0 1
    outer loop
      vertex -13.2 22.8631 12
      vertex -10.7 18.5329 12
      vertex -6.08224 22.6992 12
    endloop
  endfacet
  facet normal 0 -0 1
    outer loop
      vertex -22.6992 -6.08224 12
      vertex -21.4 0 12
      vertex -26.4 0 12
    endloop
  endfacet
  facet normal 0 0 1
    outer loop
      vertex -16.617 16.617 12
      vertex -22.8631 13.2 12
      vertex -18.5329 10.7 12
    endloop
  endfacet
  facet normal 0 0 1
    outer loop
      vertex -18.5329 10.7 12
      vertex -22.8631 13.2 12
      vertex -22.6992 6.08224 12
    endloop
  endfacet
  facet normal 0 0 1
    outer loop
      vertex -26.4 0 12
      vertex -21.4 0 12
      vertex -22.6992 6.08224 12
    endloop
  endfacet
  facet normal 0 0 1
    outer loop
      vertex -10.7 18.5329 12
      vertex -13.2 22.8631 12
      vertex -16.617 16.617 12
    endloop
  endfacet
  facet normal 0 0 1
    outer loop
      vertex -6.08224 -22.6992 12
      vertex -13.2 -22.8631 12
      vertex -7.37634 -27.5289 12
    endloop
  endfacet
  facet normal 0 0 1
    outer loop
      vertex -22.8631 -13.2 12
      vertex -18.5329 -10.7 12
      vertex -22.6992 -6.08224 12
    endloop
  endfacet
  facet normal 0 0 1
    outer loop
      vertex -16.617 -16.617 12
      vertex -13.2 -22.8631 12
      vertex -10.7 -18.5329 12
    endloop
  endfacet
  facet normal 0 0 1
    outer loop
      vertex 0 -21.4 12
      vertex 0 -26.4 12
      vertex 6.08224 -22.6992 12
    endloop
  endfacet
  facet normal 0 -0 1
    outer loop
      vertex 0 -26.4 12
      vertex 0 -21.4 12
      vertex -6.08224 -22.6992 12
    endloop
  endfacet
  facet normal 0 0 1
    outer loop
      vertex 22.6992 -6.08224 12
      vertex 18.5329 -10.7 12
      vertex 22.8631 -13.2 12
    endloop
  endfacet
  facet normal 0 -0 1
    outer loop
      vertex 7.37634 -27.5289 12
      vertex 13.2 -22.8631 12
      vertex 6.08224 -22.6992 12
    endloop
  endfacet
  facet normal 0 0 1
    outer loop
      vertex 26.4 0 12
      vertex 22.6992 6.08224 12
      vertex 21.4 0 12
    endloop
  endfacet
  facet normal 0 -0 1
    outer loop
      vertex 18.5329 10.7 12
      vertex 22.8631 13.2 12
      vertex 16.617 16.617 12
    endloop
  endfacet
  facet normal 0 0 1
    outer loop
      vertex -10.7 -18.5329 12
      vertex -13.2 -22.8631 12
      vertex -6.08224 -22.6992 12
    endloop
  endfacet
  facet normal 0 0 1
    outer loop
      vertex 0 -26.4 12
      vertex -6.08224 -22.6992 12
      vertex -7.37634 -27.5289 12
    endloop
  endfacet
  facet normal 0 0 1
    outer loop
      vertex -16.617 -16.617 12
      vertex -22.8631 -13.2 12
      vertex -20.1525 -20.1525 12
    endloop
  endfacet
  facet normal 0 0 1
    outer loop
      vertex -13.2 -22.8631 12
      vertex -16.617 -16.617 12
      vertex -20.1525 -20.1525 12
    endloop
  endfacet
  facet normal 0 0 1
    outer loop
      vertex -22.6992 -6.08224 12
      vertex -26.4 0 12
      vertex -27.5289 -7.37634 12
    endloop
  endfacet
  facet normal 0 -0 1
    outer loop
      vertex -22.8631 -13.2 12
      vertex -22.6992 -6.08224 12
      vertex -27.5289 -7.37634 12
    endloop
  endfacet
  facet normal 0 0 1
    outer loop
      vertex -22.6992 6.08224 12
      vertex -22.8631 13.2 12
      vertex -27.5289 7.37634 12
    endloop
  endfacet
  facet normal 0 -0 1
    outer loop
      vertex -26.4 0 12
      vertex -22.6992 6.08224 12
      vertex -27.5289 7.37634 12
    endloop
  endfacet
  facet normal 0 -0 1
    outer loop
      vertex -16.617 16.617 12
      vertex -13.2 22.8631 12
      vertex -20.1525 20.1525 12
    endloop
  endfacet
  facet normal 0 0 1
    outer loop
      vertex -22.8631 13.2 12
      vertex -16.617 16.617 12
      vertex -20.1525 20.1525 12
    endloop
  endfacet
  facet normal 0 -0 1
    outer loop
      vertex -6.08224 22.6992 12
      vertex 0 26.4 12
      vertex -7.37634 27.5289 12
    endloop
  endfacet
  facet normal -0 0 1
    outer loop
      vertex -13.2 22.8631 12
      vertex -6.08224 22.6992 12
      vertex -7.37634 27.5289 12
    endloop
  endfacet
  facet normal 0 0 1
    outer loop
      vertex 6.08224 22.6992 12
      vertex 13.2 22.8631 12
      vertex 7.37634 27.5289 12
    endloop
  endfacet
  facet normal -0 0 1
    outer loop
      vertex 0 26.4 12
      vertex 6.08224 22.6992 12
      vertex 7.37634 27.5289 12
    endloop
  endfacet
  facet normal -0 0 1
    outer loop
      vertex 16.617 16.617 12
      vertex 22.8631 13.2 12
      vertex 20.1525 20.1525 12
    endloop
  endfacet
  facet normal 0 0 1
    outer loop
      vertex 13.2 22.8631 12
      vertex 16.617 16.617 12
      vertex 20.1525 20.1525 12
    endloop
  endfacet
  facet normal -0 0 1
    outer loop
      vertex 22.6992 6.08224 12
      vertex 26.4 0 12
      vertex 27.5289 7.37634 12
    endloop
  endfacet
  facet normal 0 0 1
    outer loop
      vertex 22.8631 13.2 12
      vertex 22.6992 6.08224 12
      vertex 27.5289 7.37634 12
    endloop
  endfacet
  facet normal 0 0 1
    outer loop
      vertex 22.6992 -6.08224 12
      vertex 22.8631 -13.2 12
      vertex 27.5289 -7.37634 12
    endloop
  endfacet
  facet normal 0 0 1
    outer loop
      vertex 26.4 0 12
      vertex 22.6992 -6.08224 12
      vertex 27.5289 -7.37634 12
    endloop
  endfacet
  facet normal 0 -0 1
    outer loop
      vertex 13.2 -22.8631 12
      vertex 16.617 -16.617 12
      vertex 10.7 -18.5329 12
    endloop
  endfacet
  facet normal -0 0 1
    outer loop
      vertex 16.617 -16.617 12
      vertex 20.1525 -20.1525 12
      vertex 22.8631 -13.2 12
    endloop
  endfacet
  facet normal 0 0 1
    outer loop
      vertex 13.2 -22.8631 12
      vertex 20.1525 -20.1525 12
      vertex 16.617 -16.617 12
    endloop
  endfacet
  facet normal -0 0 1
    outer loop
      vertex 6.08224 -22.6992 12
      vertex 13.2 -22.8631 12
      vertex 10.7 -18.5329 12
    endloop
  endfacet
  facet normal 0.363243 -0.931694 0
    outer loop
      vertex 20.1525 -20.1525 0
      vertex 13.2 -22.8631 12
      vertex 13.2 -22.8631 0
    endloop
  endfacet
  facet normal 0.363243 -0.931694 0
    outer loop
      vertex 20.1525 -20.1525 0
      vertex 20.1525 -20.1525 12
      vertex 13.2 -22.8631 12
    endloop
  endfacet
  facet normal 0.931694 -0.363243 0
    outer loop
      vertex 22.8631 -13.2 0
      vertex 20.1525 -20.1525 12
      vertex 20.1525 -20.1525 0
    endloop
  endfacet
  facet normal 0.931694 -0.363243 0
    outer loop
      vertex 22.8631 -13.2 0
      vertex 22.8631 -13.2 12
      vertex 20.1525 -20.1525 12
    endloop
  endfacet
  facet normal 0.780419 -0.625256 0
    outer loop
      vertex 27.5289 -7.37634 0
      vertex 22.8631 -13.2 12
      vertex 22.8631 -13.2 0
    endloop
  endfacet
  facet normal 0.780419 -0.625256 0
    outer loop
      vertex 27.5289 -7.37634 0
      vertex 27.5289 -7.37634 12
      vertex 22.8631 -13.2 12
    endloop
  endfacet
  facet normal 0.988491 0.151282 0
    outer loop
      vertex 26.4 0 0
      vertex 27.5289 -7.37634 12
      vertex 27.5289 -7.37634 0
    endloop
  endfacet
  facet normal 0.988491 0.151282 -0
    outer loop
      vertex 26.4 0 0
      vertex 26.4 0 12
      vertex 27.5289 -7.37634 12
    endloop
  endfacet
  facet normal 0.988491 -0.151282 0
    outer loop
      vertex 27.5289 7.37634 0
      vertex 26.4 0 12
      vertex 26.4 0 0
    endloop
  endfacet
  facet normal 0.988491 -0.151282 0
    outer loop
      vertex 27.5289 7.37634 0
      vertex 27.5289 7.37634 12
      vertex 26.4 0 12
    endloop
  endfacet
  facet normal 0.780419 0.625256 0
    outer loop
      vertex 22.8631 13.2 0
      vertex 27.5289 7.37634 12
      vertex 27.5289 7.37634 0
    endloop
  endfacet
  facet normal 0.780419 0.625256 -0
    outer loop
      vertex 22.8631 13.2 0
      vertex 22.8631 13.2 12
      vertex 27.5289 7.37634 12
    endloop
  endfacet
  facet normal 0.931694 0.363243 0
    outer loop
      vertex 20.1525 20.1525 0
      vertex 22.8631 13.2 12
      vertex 22.8631 13.2 0
    endloop
  endfacet
  facet normal 0.931694 0.363243 -0
    outer loop
      vertex 20.1525 20.1525 0
      vertex 20.1525 20.1525 12
      vertex 22.8631 13.2 12
    endloop
  endfacet
  facet normal 0.363243 0.931694 0
    outer loop
      vertex 13.2 22.8631 0
      vertex 20.1525 20.1525 12
      vertex 20.1525 20.1525 0
    endloop
  endfacet
  facet normal 0.363243 0.931694 -0
    outer loop
      vertex 13.2 22.8631 0
      vertex 13.2 22.8631 12
      vertex 20.1525 20.1525 12
    endloop
  endfacet
  facet normal 0.625256 0.780419 0
    outer loop
      vertex 7.37634 27.5289 0
      vertex 13.2 22.8631 12
      vertex 13.2 22.8631 0
    endloop
  endfacet
  facet normal 0.625256 0.780419 -0
    outer loop
      vertex 7.37634 27.5289 0
      vertex 7.37634 27.5289 12
      vertex 13.2 22.8631 12
    endloop
  endfacet
  facet normal -0.151282 0.988491 0
    outer loop
      vertex 0 26.4 0
      vertex 7.37634 27.5289 12
      vertex 7.37634 27.5289 0
    endloop
  endfacet
  facet normal -0.151282 0.988491 0
    outer loop
      vertex 0 26.4 0
      vertex 0 26.4 12
      vertex 7.37634 27.5289 12
    endloop
  endfacet
  facet normal 0.151282 0.988491 0
    outer loop
      vertex -7.37634 27.5289 0
      vertex 0 26.4 12
      vertex 0 26.4 0
    endloop
  endfacet
  facet normal 0.151282 0.988491 -0
    outer loop
      vertex -7.37634 27.5289 0
      vertex -7.37634 27.5289 12
      vertex 0 26.4 12
    endloop
  endfacet
  facet normal -0.625256 0.780419 0
    outer loop
      vertex -13.2 22.8631 0
      vertex -7.37634 27.5289 12
      vertex -7.37634 27.5289 0
    endloop
  endfacet
  facet normal -0.625256 0.780419 0
    outer loop
      vertex -13.2 22.8631 0
      vertex -13.2 22.8631 12
      vertex -7.37634 27.5289 12
    endloop
  endfacet
  facet normal -0.363243 0.931694 0
    outer loop
      vertex -20.1525 20.1525 0
      vertex -13.2 22.8631 12
      vertex -13.2 22.8631 0
    endloop
  endfacet
  facet normal -0.363243 0.931694 0
    outer loop
      vertex -20.1525 20.1525 0
      vertex -20.1525 20.1525 12
      vertex -13.2 22.8631 12
    endloop
  endfacet
  facet normal -0.931694 0.363243 0
    outer loop
      vertex -22.8631 13.2 0
      vertex -20.1525 20.1525 12
      vertex -20.1525 20.1525 0
    endloop
  endfacet
  facet normal -0.931694 0.363243 0
    outer loop
      vertex -22.8631 13.2 0
      vertex -22.8631 13.2 12
      vertex -20.1525 20.1525 12
    endloop
  endfacet
  facet normal -0.780419 0.625256 0
    outer loop
      vertex -27.5289 7.37634 0
      vertex -22.8631 13.2 12
      vertex -22.8631 13.2 0
    endloop
  endfacet
  facet normal -0.780419 0.625256 0
    outer loop
      vertex -27.5289 7.37634 0
      vertex -27.5289 7.37634 12
      vertex -22.8631 13.2 12
    endloop
  endfacet
  facet normal -0.988491 -0.151282 0
    outer loop
      vertex -26.4 0 0
      vertex -27.5289 7.37634 12
      vertex -27.5289 7.37634 0
    endloop
  endfacet
  facet normal -0.988491 -0.151282 0
    outer loop
      vertex -26.4 0 0
      vertex -26.4 0 12
      vertex -27.5289 7.37634 12
    endloop
  endfacet
  facet normal -0.988491 0.151282 0
    outer loop
      vertex -27.5289 -7.37634 0
      vertex -26.4 0 12
      vertex -26.4 0 0
    endloop
  endfacet
  facet normal -0.988491 0.151282 0
    outer loop
      vertex -27.5289 -7.37634 0
      vertex -27.5289 -7.37634 12
      vertex -26.4 0 12
    endloop
  endfacet
  facet normal -0.780419 -0.625256 0
    outer loop
      vertex -22.8631 -13.2 0
      vertex -27.5289 -7.37634 12
      vertex -27.5289 -7.37634 0
    endloop
  endfacet
  facet normal -0.780419 -0.625256 0
    outer loop
      vertex -22.8631 -13.2 0
      vertex -22.8631 -13.2 12
      vertex -27.5289 -7.37634 12
    endloop
  endfacet
  facet normal -0.931694 -0.363243 0
    outer loop
      vertex -20.1525 -20.1525 0
      vertex -22.8631 -13.2 12
      vertex -22.8631 -13.2 0
    endloop
  endfacet
  facet normal -0.931694 -0.363243 0
    outer loop
      vertex -20.1525 -20.1525 0
      vertex -20.1525 -20.1525 12
      vertex -22.8631 -13.2 12
    endloop
  endfacet
  facet normal -0.363243 -0.931694 0
    outer loop
      vertex -13.2 -22.8631 0
      vertex -20.1525 -20.1525 12
      vertex -20.1525 -20.1525 0
    endloop
  endfacet
  facet normal -0.363243 -0.931694 0
    outer loop
      vertex -13.2 -22.8631 0
      vertex -13.2 -22.8631 12
      vertex -20.1525 -20.1525 12
    endloop
  endfacet
  facet normal -0.625256 -0.780419 0
    outer loop
      vertex -7.37634 -27.5289 0
      vertex -13.2 -22.8631 12
      vertex -13.2 -22.8631 0
    endloop
  endfacet
  facet normal -0.625256 -0.780419 0
    outer loop
      vertex -7.37634 -27.5289 0
      vertex -7.37634 -27.5289 12
      vertex -13.2 -22.8631 12
    endloop
  endfacet
  facet normal 0.151282 -0.988491 0
    outer loop
      vertex 0 -26.4 0
      vertex -7.37634 -27.5289 12
      vertex -7.37634 -27.5289 0
    endloop
  endfacet
  facet normal 0.151282 -0.988491 0
    outer loop
      vertex 0 -26.4 0
      vertex 0 -26.4 12
      vertex -7.37634 -27.5289 12
    endloop
  endfacet
  facet normal -0.151282 -0.988491 0
    outer loop
      vertex 7.37634 -27.5289 0
      vertex 0 -26.4 12
      vertex 0 -26.4 0
    endloop
  endfacet
  facet normal -0.151282 -0.988491 0
    outer loop
      vertex 7.37634 -27.5289 0
      vertex 7.37634 -27.5289 12
      vertex 0 -26.4 12
    endloop
  endfacet
  facet normal 0.625256 -0.780419 0
    outer loop
      vertex 13.2 -22.8631 0
      vertex 7.37634 -27.5289 12
      vertex 7.37634 -27.5289 0
    endloop
  endfacet
  facet normal 0.625256 -0.780419 0
    outer loop
      vertex 13.2 -22.8631 0
      vertex 13.2 -22.8631 12
      vertex 7.37634 -27.5289 12
    endloop
  endfacet
  facet normal -0.208893 0.977938 0
    outer loop
      vertex -6.08224 -22.6992 0
      vertex -6.08224 -22.6992 12
      vertex 0 -21.4 0
    endloop
  endfacet
  facet normal -0.208893 0.977938 0
    outer loop
      vertex 0 -21.4 12
      vertex 0 -21.4 0
      vertex -6.08224 -22.6992 12
    endloop
  endfacet
  facet normal 0.669881 0.742469 -0
    outer loop
      vertex -10.7 -18.5329 0
      vertex -10.7 -18.5329 12
      vertex -6.08224 -22.6992 0
    endloop
  endfacet
  facet normal 0.669881 0.742469 0
    outer loop
      vertex -6.08224 -22.6992 12
      vertex -6.08224 -22.6992 0
      vertex -10.7 -18.5329 12
    endloop
  endfacet
  facet normal 0.30805 0.95137 -0
    outer loop
      vertex -16.617 -16.617 0
      vertex -16.617 -16.617 12
      vertex -10.7 -18.5329 0
    endloop
  endfacet
  facet normal 0.30805 0.95137 0
    outer loop
      vertex -10.7 -18.5329 12
      vertex -10.7 -18.5329 0
      vertex -16.617 -16.617 12
    endloop
  endfacet
  facet normal 0.95137 0.30805 -0
    outer loop
      vertex -18.5329 -10.7 0
      vertex -18.5329 -10.7 12
      vertex -16.617 -16.617 0
    endloop
  endfacet
  facet normal 0.95137 0.30805 0
    outer loop
      vertex -16.617 -16.617 12
      vertex -16.617 -16.617 0
      vertex -18.5329 -10.7 12
    endloop
  endfacet
  facet normal 0.742469 0.669881 -0
    outer loop
      vertex -22.6992 -6.08224 0
      vertex -22.6992 -6.08224 12
      vertex -18.5329 -10.7 0
    endloop
  endfacet
  facet normal 0.742469 0.669881 0
    outer loop
      vertex -18.5329 -10.7 12
      vertex -18.5329 -10.7 0
      vertex -22.6992 -6.08224 12
    endloop
  endfacet
  facet normal 0.977938 -0.208893 0
    outer loop
      vertex -21.4 0 0
      vertex -21.4 0 12
      vertex -22.6992 -6.08224 0
    endloop
  endfacet
  facet normal 0.977938 -0.208893 0
    outer loop
      vertex -22.6992 -6.08224 12
      vertex -22.6992 -6.08224 0
      vertex -21.4 0 12
    endloop
  endfacet
  facet normal 0.977938 0.208893 -0
    outer loop
      vertex -22.6992 6.08224 0
      vertex -22.6992 6.08224 12
      vertex -21.4 0 0
    endloop
  endfacet
  facet normal 0.977938 0.208893 0
    outer loop
      vertex -21.4 0 12
      vertex -21.4 0 0
      vertex -22.6992 6.08224 12
    endloop
  endfacet
  facet normal 0.742469 -0.669881 0
    outer loop
      vertex -18.5329 10.7 0
      vertex -18.5329 10.7 12
      vertex -22.6992 6.08224 0
    endloop
  endfacet
  facet normal 0.742469 -0.669881 0
    outer loop
      vertex -22.6992 6.08224 12
      vertex -22.6992 6.08224 0
      vertex -18.5329 10.7 12
    endloop
  endfacet
  facet normal 0.95137 -0.30805 0
    outer loop
      vertex -16.617 16.617 0
      vertex -16.617 16.617 12
      vertex -18.5329 10.7 0
    endloop
  endfacet
  facet normal 0.95137 -0.30805 0
    outer loop
      vertex -18.5329 10.7 12
      vertex -18.5329 10.7 0
      vertex -16.617 16.617 12
    endloop
  endfacet
  facet normal 0.30805 -0.95137 0
    outer loop
      vertex -10.7 18.5329 0
      vertex -10.7 18.5329 12
      vertex -16.617 16.617 0
    endloop
  endfacet
  facet normal 0.30805 -0.95137 0
    outer loop
      vertex -16.617 16.617 12
      vertex -16.617 16.617 0
      vertex -10.7 18.5329 12
    endloop
  endfacet
  facet normal 0.669881 -0.742469 0
    outer loop
      vertex -6.08224 22.6992 0
      vertex -6.08224 22.6992 12
      vertex -10.7 18.5329 0
    endloop
  endfacet
  facet normal 0.669881 -0.742469 0
    outer loop
      vertex -10.7 18.5329 12
      vertex -10.7 18.5329 0
      vertex -6.08224 22.6992 12
    endloop
  endfacet
  facet normal -0.208893 -0.977938 0
    outer loop
      vertex 0 21.4 0
      vertex 0 21.4 12
      vertex -6.08224 22.6992 0
    endloop
  endfacet
  facet normal -0.208893 -0.977938 -0
    outer loop
      vertex -6.08224 22.6992 12
      vertex -6.08224 22.6992 0
      vertex 0 21.4 12
    endloop
  endfacet
  facet normal 0.208893 -0.977938 0
    outer loop
      vertex 6.08224 22.6992 0
      vertex 6.08224 22.6992 12
      vertex 0 21.4 0
    endloop
  endfacet
  facet normal 0.208893 -0.977938 0
    outer loop
      vertex 0 21.4 12
      vertex 0 21.4 0
      vertex 6.08224 22.6992 12
    endloop
  endfacet
  facet normal -0.669881 -0.742469 0
    outer loop
      vertex 10.7 18.5329 0
      vertex 10.7 18.5329 12
      vertex 6.08224 22.6992 0
    endloop
  endfacet
  facet normal -0.669881 -0.742469 -0
    outer loop
      vertex 6.08224 22.6992 12
      vertex 6.08224 22.6992 0
      vertex 10.7 18.5329 12
    endloop
  endfacet
  facet normal -0.30805 -0.95137 0
    outer loop
      vertex 16.617 16.617 0
      vertex 16.617 16.617 12
      vertex 10.7 18.5329 0
    endloop
  endfacet
  facet normal -0.30805 -0.95137 -0
    outer loop
      vertex 10.7 18.5329 12
      vertex 10.7 18.5329 0
      vertex 16.617 16.617 12
    endloop
  endfacet
  facet normal -0.95137 -0.30805 0
    outer loop
      vertex 18.5329 10.7 0
      vertex 18.5329 10.7 12
      vertex 16.617 16.617 0
    endloop
  endfacet
  facet normal -0.95137 -0.30805 -0
    outer loop
      vertex 16.617 16.617 12
      vertex 16.617 16.617 0
      vertex 18.5329 10.7 12
    endloop
  endfacet
  facet normal -0.742469 -0.669881 0
    outer loop
      vertex 22.6992 6.08224 0
      vertex 22.6992 6.08224 12
      vertex 18.5329 10.7 0
    endloop
  endfacet
  facet normal -0.742469 -0.669881 -0
    outer loop
      vertex 18.5329 10.7 12
      vertex 18.5329 10.7 0
      vertex 22.6992 6.08224 12
    endloop
  endfacet
  facet normal -0.977938 0.208893 0
    outer loop
      vertex 21.4 0 0
      vertex 21.4 0 12
      vertex 22.6992 6.08224 0
    endloop
  endfacet
  facet normal -0.977938 0.208893 0
    outer loop
      vertex 22.6992 6.08224 12
      vertex 22.6992 6.08224 0
      vertex 21.4 0 12
    endloop
  endfacet
  facet normal -0.977938 -0.208893 0
    outer loop
      vertex 22.6992 -6.08224 0
      vertex 22.6992 -6.08224 12
      vertex 21.4 0 0
    endloop
  endfacet
  facet normal -0.977938 -0.208893 -0
    outer loop
      vertex 21.4 0 12
      vertex 21.4 0 0
      vertex 22.6992 -6.08224 12
    endloop
  endfacet
  facet normal -0.742469 0.669881 0
    outer loop
      vertex 18.5329 -10.7 0
      vertex 18.5329 -10.7 12
      vertex 22.6992 -6.08224 0
    endloop
  endfacet
  facet normal -0.742469 0.669881 0
    outer loop
      vertex 22.6992 -6.08224 12
      vertex 22.6992 -6.08224 0
      vertex 18.5329 -10.7 12
    endloop
  endfacet
  facet normal -0.95137 0.30805 0
    outer loop
      vertex 16.617 -16.617 0
      vertex 16.617 -16.617 12
      vertex 18.5329 -10.7 0
    endloop
  endfacet
  facet normal -0.95137 0.30805 0
    outer loop
      vertex 18.5329 -10.7 12
      vertex 18.5329 -10.7 0
      vertex 16.617 -16.617 12
    endloop
  endfacet
  facet normal -0.30805 0.95137 0
    outer loop
      vertex 10.7 -18.5329 0
      vertex 10.7 -18.5329 12
      vertex 16.617 -16.617 0
    endloop
  endfacet
  facet normal -0.30805 0.95137 0
    outer loop
      vertex 16.617 -16.617 12
      vertex 16.617 -16.617 0
      vertex 10.7 -18.5329 12
    endloop
  endfacet
  facet normal -0.669881 0.742469 0
    outer loop
      vertex 6.08224 -22.6992 0
      vertex 6.08224 -22.6992 12
      vertex 10.7 -18.5329 0
    endloop
  endfacet
  facet normal -0.669881 0.742469 0
    outer loop
      vertex 10.7 -18.5329 12
      vertex 10.7 -18.5329 0
      vertex 6.08224 -22.6992 12
    endloop
  endfacet
  facet normal 0.208893 0.977938 -0
    outer loop
      vertex 0 -21.4 0
      vertex 0 -21.4 12
      vertex 6.08224 -22.6992 0
    endloop
  endfacet
  facet normal 0.208893 0.977938 0
    outer loop
      vertex 6.08224 -22.6992 12
      vertex 6.08224 -22.6992 0
      vertex 0 -21.4 12
    endloop
  endfacet
endsolid OpenSCAD_Model
